<?xml version="1.0" standalone="no"?>
<!DOCTYPE svg PUBLIC "-//W3C//DTD SVG 20010904//EN"
 "http://www.w3.org/TR/2001/REC-SVG-20010904/DTD/svg10.dtd">
<svg version="1.0" xmlns="http://www.w3.org/2000/svg"
 width="512.000000pt" height="512.000000pt" viewBox="0 0 512.000000 512.000000"
 preserveAspectRatio="xMidYMid meet">
<metadata>
Created by potrace 1.11, written by Peter Selinger 2001-2013
</metadata>
<g transform="translate(0.000000,512.000000) scale(0.100000,-0.100000)"
fill="#000000" stroke="none">
<path d="M430 2555 l0 -1535 2135 0 2135 0 0 1535 0 1535 -2135 0 -2135 0 0
-1535z m3990 0 l0 -1255 -1855 0 -1855 0 0 1255 0 1255 1855 0 1855 0 0 -1255z"/>
<path d="M900 3085 c0 -2 86 -118 191 -257 105 -139 193 -258 196 -265 3 -7
-86 -129 -196 -272 -111 -142 -201 -262 -201 -265 0 -3 74 -6 164 -6 l164 0
119 160 120 159 126 -159 127 -160 165 0 c91 0 165 2 165 5 0 3 -90 121 -200
263 -110 141 -200 262 -200 267 0 6 90 126 200 267 110 142 200 260 200 263 0
3 -74 5 -165 5 l-165 0 -127 -160 -126 -159 -120 159 -119 160 -159 0 c-88 0
-159 -2 -159 -5z"/>
<path d="M2160 2555 l0 -535 135 0 135 0 0 181 0 180 193 -3 c182 -2 195 -1
251 21 75 30 137 87 167 154 21 45 24 67 24 172 0 109 -2 125 -26 175 -47 98
-121 152 -247 179 -32 7 -165 11 -342 11 l-290 0 0 -535z m616 262 c19 -22 24
-39 24 -82 0 -120 -26 -135 -230 -135 l-150 0 0 126 0 125 166 -3 166 -3 24
-28z"/>
<path d="M3220 2555 l0 -535 135 0 135 0 0 175 0 175 123 0 124 0 98 -171 c54
-94 103 -173 109 -175 7 -3 80 -3 164 -2 l152 3 -125 204 c-69 112 -122 207
-118 211 4 3 29 23 55 43 30 24 57 58 75 95 25 51 28 67 28 157 0 82 -5 109
-23 150 -29 63 -83 120 -146 152 -89 45 -156 53 -483 53 l-303 0 0 -535z m620
280 c75 -44 74 -156 0 -200 -31 -17 -56 -20 -202 -23 l-168 -4 0 127 0 127
168 -4 c146 -3 171 -6 202 -23z"/>
</g>
</svg>
