<?xml version="1.0" encoding="utf-8"?>
<!-- Generator: Adobe Illustrator 19.2.1, SVG Export Plug-In . SVG Version: 6.00 Build 0)  -->
<svg version="1.1" id="Mode_Isolation" xmlns="http://www.w3.org/2000/svg" xmlns:xlink="http://www.w3.org/1999/xlink" x="0px"
	 y="0px" width="21.2px" height="23px" viewBox="0 0 21.2 23" style="enable-background:new 0 0 21.2 23;" xml:space="preserve">
<style type="text/css">
	.st0{fill:#41434F;}
</style>
<g>
	<path class="st0" d="M10.1,20.1C4.5,20.1,0,15.6,0,10.1S4.5,0,10.1,0c5.6,0,10.1,4.5,10.1,10.1S15.6,20.1,10.1,20.1z M10.1,1
		C5.1,1,1,5.1,1,10.1c0,5,4.1,9.1,9.1,9.1s9.1-4.1,9.1-9.1C19.1,5.1,15.1,1,10.1,1z"/>
</g>
<g>
	<path class="st0" d="M3.5,10.6c-0.3,0-0.5-0.2-0.5-0.5c0-3.9,3.2-7,7-7c0.3,0,0.5,0.2,0.5,0.5S10.3,4,10.1,4c-3.3,0-6,2.7-6,6
		C4,10.3,3.8,10.6,3.5,10.6z"/>
</g>
<g>
	<path class="st0" d="M20.7,23c-0.1,0-0.3,0-0.4-0.1l-4.6-4.6c-0.2-0.2-0.2-0.5,0-0.7s0.5-0.2,0.7,0l4.6,4.6c0.2,0.2,0.2,0.5,0,0.7
		C21,23,20.8,23,20.7,23z"/>
</g>
</svg>
