<?xml version="1.0" standalone="no"?>
<!DOCTYPE svg PUBLIC "-//W3C//DTD SVG 20010904//EN"
 "http://www.w3.org/TR/2001/REC-SVG-20010904/DTD/svg10.dtd">
<svg version="1.0" xmlns="http://www.w3.org/2000/svg"
 width="579.000000pt" height="579.000000pt" viewBox="0 0 579.000000 579.000000"
 preserveAspectRatio="xMidYMid meet">
<metadata>
Created by potrace 1.11, written by Peter Selinger 2001-2013
</metadata>
<g transform="translate(0.000000,579.000000) scale(0.100000,-0.100000)"
fill="#000000" stroke="none">
<path d="M0 2895 l0 -2895 2895 0 2895 0 0 2895 0 2895 -2895 0 -2895 0 0
-2895z m2008 246 c88 -45 142 -138 142 -246 0 -156 -103 -265 -250 -265 -135
0 -234 96 -247 239 -6 68 7 122 46 183 68 107 200 145 309 89z m-898 -11 l0
-30 -145 0 -145 0 0 -85 0 -85 120 0 120 0 0 -30 0 -29 -117 -3 -118 -3 -3
-117 -3 -118 -34 0 -35 0 0 265 0 265 180 0 180 0 0 -30z m410 -5 c45 -43 60
-77 60 -137 0 -62 -25 -110 -70 -136 -16 -9 -30 -20 -30 -24 0 -4 24 -45 53
-90 29 -46 57 -89 61 -95 5 -10 -3 -13 -32 -13 -39 0 -41 1 -100 95 l-61 95
-71 0 -70 0 0 -95 0 -95 -35 0 -35 0 0 266 0 265 149 -3 150 -3 31 -30z m940
-166 l160 -202 0 202 0 201 40 0 40 0 0 -265 0 -265 -33 0 c-31 0 -43 12 -193
200 l-159 199 -3 -199 -2 -200 -35 0 -35 0 0 265 0 265 30 0 c27 0 46 -20 190
-201z m750 171 l0 -30 -90 0 -90 0 0 -235 0 -235 -35 0 -35 0 0 235 0 235 -95
0 -95 0 0 30 0 30 220 0 220 0 0 -30z m700 0 l0 -30 -145 0 -145 0 0 -85 0
-85 125 0 125 0 0 -30 0 -30 -125 0 -125 0 0 -90 0 -90 150 0 150 0 0 -30 0
-30 -185 0 -185 0 0 265 0 265 180 0 180 0 0 -30z m320 -171 l160 -202 0 202
0 201 40 0 40 0 0 -265 0 -265 -33 0 c-31 0 -43 12 -193 200 l-159 199 -3
-199 -2 -200 -35 0 -35 0 0 265 0 265 30 0 c27 0 46 -20 190 -201z m644 187
c49 -21 102 -72 127 -123 51 -106 19 -274 -65 -338 -58 -44 -100 -54 -233 -55
l-123 0 0 265 0 265 130 0 c88 0 141 -4 164 -14z m-1434 -311 l0 -35 -110 0
-110 0 0 35 0 35 110 0 110 0 0 -35z"/>
<path d="M1815 3076 c-103 -63 -125 -228 -43 -322 41 -46 77 -64 130 -64 66 0
118 34 151 99 50 100 29 218 -50 278 -51 39 -133 43 -188 9z"/>
<path d="M1262 2993 l3 -108 70 -3 c102 -5 132 3 156 41 29 46 22 122 -15 154
-24 21 -37 23 -122 23 l-95 0 3 -107z"/>
<path d="M4650 2895 l0 -205 78 0 c90 0 144 21 184 68 36 43 52 124 38 188
-25 113 -84 154 -218 154 l-82 0 0 -205z"/>
</g>
</svg>
