<?xml version="1.0" encoding="UTF-8"?>
<svg id="Calque_1" xmlns="http://www.w3.org/2000/svg" version="1.1" viewBox="0 0 20.9 19.5">
  <!-- Generator: Adobe Illustrator 29.3.1, SVG Export Plug-In . SVG Version: 2.1.0 Build 151)  -->
  <defs>
    <style>
      .st0 {
        fill: #0f172a;
      }
    </style>
  </defs>
  <path class="st0" d="M10.5,19.5c-.3,0-.5-.1-.6-.3l-2.8-4.1s-.2-.2-.3-.2c-1.2,0-2.3-.2-3.5-.4-1.9-.3-3.3-2-3.3-4v-6C0,2.5,1.4.8,3.3.5,8-.2,12.9-.2,17.6.5c1.9.3,3.3,2,3.3,4v6c0,2-1.4,3.7-3.3,4-1.1.2-2.3.3-3.5.4-.1,0-.2,0-.3.2l-2.8,4.1c-.1.2-.4.3-.6.3h.1ZM10.5,1.5c-2.3,0-4.7.2-6.9.5-1.2.2-2.1,1.2-2.1,2.5v6c0,1.3.9,2.3,2.1,2.5,1.1.2,2.2.3,3.4.4.6,0,1.1.3,1.4.8l2.1,3.2,2.1-3.2c.3-.5.8-.8,1.4-.8,1.1,0,2.3-.2,3.4-.4,1.2-.2,2.1-1.2,2.1-2.5v-6c0-1.3-.9-2.3-2.1-2.5-2.3-.3-4.6-.5-6.9-.5ZM10.5,9.7h-4.5c-.4,0-.8-.3-.8-.8s.3-.8.8-.8h4.5c.4,0,.8.3.8.8s-.3.8-.8.8ZM15,6.7H6c-.4,0-.8-.3-.8-.8s.3-.8.8-.8h9c.4,0,.8.3.8.8s-.3.8-.8.8Z"/>
</svg>