<svg width="22" height="22" viewBox="0 0 22 22" fill="none" xmlns="http://www.w3.org/2000/svg">
<path d="M20.9828 13.9113C20.3486 13.6594 19.7796 13.2672 19.3184 12.7641C18.8573 12.2611 18.5159 11.6602 18.32 11.0065C18.124 10.3528 18.0786 9.66321 18.1869 8.98944C18.2953 8.31566 18.5548 7.67515 18.9459 7.11588C18.9995 7.03841 19.0356 6.95015 19.0516 6.85727C19.0676 6.7644 19.0631 6.66914 19.0385 6.57818C19.0138 6.48722 18.9696 6.40274 18.9089 6.33065C18.8482 6.25856 18.7725 6.2006 18.687 6.16082C18.1308 5.90276 17.6605 5.49022 17.3322 4.97236C17.0038 4.4545 16.8313 3.85316 16.8352 3.24C16.831 2.93605 16.8769 2.63349 16.9711 2.34447C17.0173 2.20497 17.0147 2.05386 16.9637 1.91602C16.9127 1.77819 16.8162 1.66183 16.6902 1.58612C14.7489 0.412691 12.4923 -0.13187 10.2295 0.0270272C7.96664 0.185924 5.80827 1.04051 4.05 2.47372C2.29173 3.90694 1.01954 5.84869 0.407692 8.03302C-0.204154 10.2173 -0.125735 12.5374 0.632206 14.6754C1.39015 16.8135 2.79054 18.6649 4.64158 19.9761C6.49262 21.2873 8.70376 21.9942 10.9722 22C13.2405 22.0057 15.4552 21.31 17.3129 20.0082C19.1705 18.7063 20.5803 16.862 21.3491 14.7279C21.405 14.5708 21.3981 14.3982 21.3299 14.2461C21.2616 14.0939 21.1373 13.974 20.9828 13.9113ZM11.0116 20.7106C9.53406 20.7126 8.07553 20.3773 6.74722 19.7301C5.4189 19.0829 4.25589 18.141 3.34682 16.9762C2.43775 15.8114 1.80662 14.4543 1.50156 13.0086C1.1965 11.5629 1.22555 10.0665 1.58649 8.63373C1.94744 7.20092 2.63076 5.86943 3.58435 4.74076C4.53795 3.61209 5.73665 2.71604 7.08908 2.12091C8.44151 1.52579 9.91196 1.2473 11.3883 1.30667C12.8647 1.36605 14.3081 1.76172 15.6083 2.46353C15.5627 2.71981 15.5402 2.97968 15.5411 3.24C15.543 3.97646 15.7239 4.70141 16.0681 5.35246C16.4123 6.00351 16.9096 6.56116 17.5172 6.97741C17.1583 7.65156 16.9357 8.38981 16.8622 9.14998C16.7887 9.91016 16.8657 10.6774 17.0887 11.4078C17.3118 12.1382 17.6765 12.8175 18.1622 13.407C18.6478 13.9964 19.2448 14.4844 19.9191 14.8431C19.1704 16.5847 17.9277 18.0687 16.3446 19.1116C14.7615 20.1544 12.9074 20.7103 11.0116 20.7106ZM6.8187 12.2988C6.8187 12.5548 6.7428 12.805 6.6006 13.0178C6.4584 13.2306 6.25629 13.3965 6.01982 13.4944C5.78335 13.5924 5.52315 13.618 5.27211 13.5681C5.02108 13.5181 4.79049 13.3949 4.6095 13.2139C4.42852 13.0329 4.30527 12.8023 4.25533 12.5513C4.2054 12.3003 4.23103 12.0401 4.32897 11.8036C4.42692 11.5671 4.59279 11.365 4.80561 11.2228C5.01843 11.0806 5.26863 11.0047 5.52458 11.0047C5.8678 11.0047 6.19697 11.141 6.43966 11.3837C6.68236 11.6264 6.8187 11.9556 6.8187 12.2988ZM14.5834 14.8871C14.5834 15.143 14.5075 15.3932 14.3653 15.606C14.2231 15.8188 14.021 15.9847 13.7845 16.0827C13.5481 16.1806 13.2879 16.2062 13.0368 16.1563C12.7858 16.1064 12.5552 15.9831 12.3742 15.8021C12.1932 15.6212 12.07 15.3906 12.02 15.1395C11.9701 14.8885 11.9957 14.6283 12.0937 14.3918C12.1916 14.1553 12.3575 13.9532 12.5703 13.811C12.7831 13.6688 13.0333 13.5929 13.2893 13.5929C13.6325 13.5929 13.9617 13.7293 14.2044 13.972C14.4471 14.2147 14.5834 14.5438 14.5834 14.8871ZM11.9952 5.82824C11.9952 6.08419 11.9193 6.33439 11.7771 6.54721C11.6349 6.76003 11.4328 6.9259 11.1963 7.02384C10.9598 7.12179 10.6996 7.14742 10.4486 7.09749C10.1975 7.04755 9.96696 6.9243 9.78597 6.74331C9.60499 6.56233 9.48174 6.33174 9.4318 6.0807C9.38187 5.82967 9.4075 5.56947 9.50544 5.333C9.60339 5.09653 9.76926 4.89442 9.98208 4.75222C10.1949 4.61002 10.4451 4.53412 10.7011 4.53412C11.0443 4.53412 11.3734 4.67046 11.6161 4.91316C11.8588 5.15585 11.9952 5.48501 11.9952 5.82824Z" fill="white"/>
</svg>
