<svg width="22" height="15" viewBox="0 0 22 15" fill="none" xmlns="http://www.w3.org/2000/svg">
<path d="M11 4.5C11.7956 4.5 12.5587 4.81607 13.1213 5.37868C13.6839 5.94129 14 6.70435 14 7.5C14 8.29565 13.6839 9.05871 13.1213 9.62132C12.5587 10.1839 11.7956 10.5 11 10.5C10.2044 10.5 9.44129 10.1839 8.87868 9.62132C8.31607 9.05871 8 8.29565 8 7.5C8 6.70435 8.31607 5.94129 8.87868 5.37868C9.44129 4.81607 10.2044 4.5 11 4.5ZM11 0C16 0 20.27 3.11 22 7.5C20.27 11.89 16 15 11 15C6 15 1.73 11.89 0 7.5C1.73 3.11 6 0 11 0ZM2.18 7.5C2.98825 9.15031 4.24331 10.5407 5.80248 11.5133C7.36165 12.4858 9.1624 13.0013 11 13.0013C12.8376 13.0013 14.6383 12.4858 16.1975 11.5133C17.7567 10.5407 19.0117 9.15031 19.82 7.5C19.0117 5.84969 17.7567 4.45925 16.1975 3.48675C14.6383 2.51424 12.8376 1.99868 11 1.99868C9.1624 1.99868 7.36165 2.51424 5.80248 3.48675C4.24331 4.45925 2.98825 5.84969 2.18 7.5Z" fill="black"/>
</svg>
