<?xml version="1.0" encoding="utf-8"?>
<!-- Generator: $$$/GeneralStr/196=Adobe Illustrator 27.6.0, SVG Export Plug-In . SVG Version: 6.00 Build 0)  -->
<svg version="1.1" id="Calque_1" xmlns="http://www.w3.org/2000/svg" xmlns:xlink="http://www.w3.org/1999/xlink" x="0px" y="0px"
	 viewBox="0 0 30 30" style="enable-background:new 0 0 30 30;" xml:space="preserve">
<path d="M10,3c-3.9,0-7,3.1-7,7v10c0,3.9,3.1,7,7,7h10c3.9,0,7-3.1,7-7V10c0-3.9-3.1-7-7-7H10z M22,7c0.6,0,1,0.4,1,1s-0.4,1-1,1
	s-1-0.4-1-1S21.4,7,22,7z M15,9c3.3,0,6,2.7,6,6s-2.7,6-6,6s-6-2.7-6-6S11.7,9,15,9z M15,11c-2.2,0-4,1.8-4,4s1.8,4,4,4s4-1.8,4-4
	S17.2,11,15,11z"/>
</svg>
