<?xml version="1.0" encoding="utf-8"?>
<!-- Generator: $$$/GeneralStr/196=Adobe Illustrator 27.6.0, SVG Export Plug-In . SVG Version: 6.00 Build 0)  -->
<svg version="1.1" id="Calque_1" xmlns="http://www.w3.org/2000/svg" xmlns:xlink="http://www.w3.org/1999/xlink" x="0px" y="0px"
	 viewBox="0 0 30 30" style="enable-background:new 0 0 30 30;" xml:space="preserve">
<path d="M8.5,26h-5V11h5V26z M6,9C4.6,9,3.5,7.9,3.5,6.5S4.6,4,6,4c1.4,0,2.5,1.1,2.5,2.5C8.5,7.9,7.4,9,6,9z M26.5,26h-4.8v-7.3
	c0-1.7,0-4-2.5-4c-2.5,0-2.9,1.9-2.9,3.9V26h-4.8V11h4.6V13h0.1c0.6-1.2,2.2-2.4,4.6-2.4c4.9,0,5.8,3.1,5.8,7.2
	C26.5,17.8,26.5,26,26.5,26z"/>
</svg>
