<svg width="60" height="61" viewBox="0 0 60 61" fill="none" xmlns="http://www.w3.org/2000/svg">
<path d="M22.9272 43.0732L42.396 30.5003L22.9272 17.9274V43.0732ZM30.0002 60.0837C26.014 60.0837 22.2467 59.3071 18.6981 57.754C15.1495 56.2008 12.0505 54.0807 9.4012 51.3936C6.7519 48.7064 4.66162 45.5632 3.13037 41.9639C1.59912 38.3646 0.833496 34.5434 0.833496 30.5003C0.833496 26.408 1.59912 22.5621 3.13037 18.9628C4.66162 15.3635 6.7519 12.2326 9.4012 9.57012C12.0505 6.90762 15.1495 4.7998 18.6981 3.24668C22.2467 1.69355 26.014 0.916992 30.0002 0.916992C34.0349 0.916992 37.8265 1.69355 41.3752 3.24668C44.9238 4.7998 48.0106 6.90762 50.6356 9.57012C53.2606 12.2326 55.3387 15.3635 56.8699 18.9628C58.4012 22.5621 59.1668 26.408 59.1668 30.5003C59.1668 34.5434 58.4012 38.3646 56.8699 41.9639C55.3387 45.5632 53.2606 48.7064 50.6356 51.3936C48.0106 54.0807 44.9238 56.2008 41.3752 57.754C37.8265 59.3071 34.0349 60.0837 30.0002 60.0837ZM30.0002 55.6462C36.9029 55.6462 42.7606 53.1932 47.5731 48.2873C52.3856 43.3814 54.7918 37.4524 54.7918 30.5003C54.7918 23.4989 52.3856 17.5576 47.5731 12.6764C42.7606 7.79512 36.9029 5.35449 30.0002 5.35449C23.146 5.35449 17.3005 7.79512 12.4637 12.6764C7.6269 17.5576 5.2085 23.4989 5.2085 30.5003C5.2085 37.4524 7.6269 43.3814 12.4637 48.2873C17.3005 53.1932 23.146 55.6462 30.0002 55.6462Z" fill="#808080"/>
</svg>
