<svg width="45" height="35" viewBox="0 0 45 35" fill="none" xmlns="http://www.w3.org/2000/svg">
<path d="M41.9601 0V7.11382H37.7928C34.3441 7.11382 32.6197 8.82114 32.6197 12.2358V16.7886H34.6315C37.4096 16.7886 39.7088 17.6423 41.529 19.3496C43.445 21.0569 44.403 23.1911 44.403 25.752C44.403 28.5027 43.445 30.7317 41.529 32.439C39.7088 34.1463 37.4096 35 34.6315 35C31.8533 35 29.5541 34.0989 27.7339 32.2967C25.9137 30.4946 25.0036 28.2182 25.0036 25.4675V12.2358C25.0036 4.07859 29.123 0 37.3617 0H41.9601ZM16.9565 0V7.11382H12.7892C9.34043 7.11382 7.61605 8.82114 7.61605 12.2358V16.7886H9.62783C12.406 16.7886 14.7052 17.6423 16.5254 19.3496C18.4414 21.0569 19.3994 23.1911 19.3994 25.752C19.3994 28.5027 18.4414 30.7317 16.5254 32.439C14.7052 34.1463 12.406 35 9.62783 35C6.84965 35 4.55047 34.0989 2.73028 32.2967C0.910094 30.4946 0 28.2182 0 25.4675V12.2358C0 4.07859 4.11937 0 12.3581 0H16.9565Z" fill="white"/>
</svg>
