<svg version="1.1" id="search" xmlns="http://www.w3.org/2000/svg" xmlns:xlink="http://www.w3.org/1999/xlink" x="0px" y="0px"
	 viewBox="0 0 17.5 17.5" style="enable-background:new 0 0 17.5 17.5;" xml:space="preserve">
<path d="M6.5,0c1.7,0,3.4,0.7,4.6,1.9C12.3,3.1,13,4.8,13,6.5c0,1.6-0.6,3.1-1.6,4.2l0.3,0.3h0.8l5,5L16,17.5l-5-5v-0.8l-0.3-0.3
	c-1.2,1-2.7,1.6-4.2,1.6c-1.7,0-3.4-0.7-4.6-1.9C0.7,9.9,0,8.2,0,6.5s0.7-3.4,1.9-4.6C3.1,0.7,4.8,0,6.5,0z M6.5,2C4,2,2,4,2,6.5
	S4,11,6.5,11S11,9,11,6.5S9,2,6.5,2z"/>
</svg>
