<svg width="24" height="25" viewBox="0 0 24 25" fill="none" xmlns="http://www.w3.org/2000/svg">
<path d="M22.46 6.76953C21.69 7.11953 20.86 7.34953 20 7.45953C20.88 6.92953 21.56 6.08953 21.88 5.07953C21.05 5.57953 20.13 5.92953 19.16 6.12953C18.37 5.26953 17.26 4.76953 16 4.76953C13.65 4.76953 11.73 6.68953 11.73 9.05953C11.73 9.39953 11.77 9.72953 11.84 10.0395C8.28004 9.85953 5.11004 8.14953 3.00004 5.55953C2.63004 6.18953 2.42004 6.92953 2.42004 7.70953C2.42004 9.19953 3.17004 10.5195 4.33004 11.2695C3.62004 11.2695 2.96004 11.0695 2.38004 10.7695V10.7995C2.38004 12.8795 3.86004 14.6195 5.82004 15.0095C5.19077 15.1817 4.53013 15.2057 3.89004 15.0795C4.16165 15.932 4.69358 16.6779 5.41106 17.2125C6.12854 17.747 6.99549 18.0432 7.89004 18.0595C6.37367 19.26 4.49404 19.9088 2.56004 19.8995C2.22004 19.8995 1.88004 19.8795 1.54004 19.8395C3.44004 21.0595 5.70004 21.7695 8.12004 21.7695C16 21.7695 20.33 15.2295 20.33 9.55953C20.33 9.36953 20.33 9.18953 20.32 8.99953C21.16 8.39953 21.88 7.63953 22.46 6.76953Z" fill="black"/>
</svg>
