<svg width="24" height="25" viewBox="0 0 24 25" fill="none" xmlns="http://www.w3.org/2000/svg">
<path d="M10 15.7695L15.19 12.7695L10 9.76953V15.7695ZM21.56 7.93953C21.69 8.40953 21.78 9.03953 21.84 9.83953C21.91 10.6395 21.94 11.3295 21.94 11.9295L22 12.7695C22 14.9595 21.84 16.5695 21.56 17.5995C21.31 18.4995 20.73 19.0795 19.83 19.3295C19.36 19.4595 18.5 19.5495 17.18 19.6095C15.88 19.6795 14.69 19.7095 13.59 19.7095L12 19.7695C7.81 19.7695 5.2 19.6095 4.17 19.3295C3.27 19.0795 2.69 18.4995 2.44 17.5995C2.31 17.1295 2.22 16.4995 2.16 15.6995C2.09 14.8995 2.06 14.2095 2.06 13.6095L2 12.7695C2 10.5795 2.16 8.96953 2.44 7.93953C2.69 7.03953 3.27 6.45953 4.17 6.20953C4.64 6.07953 5.5 5.98953 6.82 5.92953C8.12 5.85953 9.31 5.82953 10.41 5.82953L12 5.76953C16.19 5.76953 18.8 5.92953 19.83 6.20953C20.73 6.45953 21.31 7.03953 21.56 7.93953Z" fill="black"/>
</svg>
