<?xml version="1.0" encoding="utf-8"?>
<!-- Generator: $$$/GeneralStr/196=Adobe Illustrator 27.6.0, SVG Export Plug-In . SVG Version: 6.00 Build 0)  -->
<svg version="1.1" id="Calque_1" xmlns="http://www.w3.org/2000/svg" xmlns:xlink="http://www.w3.org/1999/xlink" x="0px" y="0px"
	 viewBox="0 0 30 30" style="enable-background:new 0 0 30 30;" xml:space="preserve">
<path d="M12.6,18.6l6.2-3.6l-6.2-3.6V18.6z M26.5,9.2c0.2,0.6,0.3,1.3,0.3,2.3c0.1,1,0.1,1.8,0.1,2.5l0.1,1c0,2.6-0.2,4.6-0.5,5.8
	c-0.3,1.1-1,1.8-2.1,2.1c-0.6,0.2-1.6,0.3-3.2,0.3c-1.6,0.1-3,0.1-4.3,0.1L15,23.4c-5,0-8.2-0.2-9.4-0.5c-1.1-0.3-1.8-1-2.1-2.1
	c-0.2-0.6-0.3-1.3-0.3-2.3c-0.1-1-0.1-1.8-0.1-2.5L3,15c0-2.6,0.2-4.6,0.5-5.8c0.3-1.1,1-1.8,2.1-2.1C6.2,7,7.2,6.9,8.8,6.8
	c1.6-0.1,3-0.1,4.3-0.1L15,6.6c5,0,8.2,0.2,9.4,0.5C25.5,7.4,26.2,8.1,26.5,9.2z"/>
</svg>
